<?xml version="1.0" standalone="no"?>
<!DOCTYPE svg PUBLIC "-//W3C//DTD SVG 20010904//EN"
 "http://www.w3.org/TR/2001/REC-SVG-20010904/DTD/svg10.dtd">
<svg version="1.0" xmlns="http://www.w3.org/2000/svg"
 width="300.000000pt" height="300.000000pt" viewBox="0 0 300.000000 300.000000"
 preserveAspectRatio="xMidYMid meet">
<metadata>
Created by potrace 1.11, written by Peter Selinger 2001-2013
</metadata>
<g transform="translate(0.000000,300.000000) scale(0.100000,-0.100000)"
fill="#000000" stroke="none">
<path d="M1063 2638 l-433 -252 0 -511 0 -511 435 -253 435 -253 435 253 435
252 0 512 0 512 -434 251 c-238 139 -435 252 -437 252 -2 0 -199 -114 -436
-252z m494 -15 c20 -9 44 -30 54 -47 68 -111 -67 -244 -178 -177 l-31 20 -114
-73 c-81 -53 -117 -71 -125 -63 -7 5 -13 15 -13 21 0 6 51 43 113 83 l112 72
-3 43 c-4 53 25 103 71 123 43 19 72 18 114 -2z m256 -278 c58 -36 111 -65
118 -65 8 0 23 7 33 15 11 8 41 15 67 15 119 0 170 -147 78 -224 -24 -20 -41
-26 -80 -26 -42 0 -55 5 -86 34 -34 30 -38 40 -39 87 l-2 53 -111 68 c-102 64
-122 83 -104 101 11 12 20 8 126 -58z m-772 -52 c65 -38 76 -138 23 -194 -16
-17 -39 -32 -51 -35 -23 -6 -23 -9 -23 -150 0 -137 -1 -144 -20 -144 -19 0
-20 7 -20 143 l0 142 -33 15 c-39 18 -77 73 -77 112 0 99 114 162 201 111z
m629 -94 c143 -67 229 -227 206 -384 -6 -36 -11 -45 -24 -43 -14 3 -17 16 -18
78 -1 100 -25 168 -80 229 -64 71 -137 104 -234 105 -73 1 -90 7 -90 34 0 11
20 13 93 10 73 -2 103 -9 147 -29z m-78 -91 c57 -17 133 -88 155 -146 16 -42
24 -154 12 -167 -3 -2 -14 -2 -25 1 -18 5 -20 12 -16 62 3 46 -1 66 -20 102
-36 67 -94 103 -173 108 -62 4 -85 18 -69 43 8 13 89 11 136 -3z m2 -129 c35
-28 56 -70 56 -114 0 -31 -3 -35 -26 -35 -22 0 -25 4 -21 22 14 52 -32 102
-103 110 -14 2 -26 11 -28 21 -5 27 86 24 122 -4z m-391 -109 c2 -84 6 -101
32 -148 58 -106 161 -166 282 -167 51 0 74 -4 78 -13 11 -28 -8 -34 -89 -30
-219 11 -378 194 -351 405 6 46 9 54 26 51 18 -3 20 -12 22 -98z m847 -45 c0
-126 2 -145 16 -145 26 0 82 -63 89 -102 14 -74 -48 -148 -125 -148 -76 0
-139 74 -126 149 6 39 49 89 83 97 23 6 23 9 23 150 0 137 1 144 20 144 19 0
20 -7 20 -145z m-737 70 c-16 -120 80 -226 207 -227 53 0 78 -20 49 -39 -17
-12 -110 -3 -152 15 -89 37 -147 128 -147 232 0 68 3 74 30 67 16 -4 18 -11
13 -48z m117 -19 c0 -50 36 -88 86 -91 31 -2 40 -7 42 -24 3 -19 -1 -21 -42
-21 -36 0 -52 6 -81 31 -56 50 -73 139 -25 139 16 0 20 -6 20 -34z m110 9 c10
-12 10 -18 0 -30 -25 -30 -61 -7 -46 30 3 8 12 15 19 15 8 0 20 -7 27 -15z
m-508 -216 c40 -18 63 -59 63 -113 l0 -49 112 -75 c75 -50 110 -79 106 -88 -3
-8 -9 -14 -14 -14 -6 0 -59 31 -119 70 l-110 70 -33 -20 c-134 -82 -266 103
-146 205 33 27 98 34 141 14z m808 -213 c0 -2 3 -11 6 -19 4 -11 -27 -34 -111
-84 -115 -67 -116 -68 -111 -100 4 -27 2 -33 -14 -33 -12 0 -21 10 -25 29 -9
42 -40 66 -85 66 -45 0 -76 -24 -85 -66 -5 -20 -13 -29 -26 -29 -24 0 -24 13
1 66 34 70 128 96 180 49 9 -8 21 -15 26 -15 5 0 59 31 119 69 104 65 125 77
125 67z m-316 -211 c6 -18 -16 -30 -39 -21 -20 7 -8 36 15 36 10 0 21 -7 24
-15z"/>
<path d="M1445 2565 c-50 -49 -15 -135 55 -135 19 0 40 9 55 25 16 15 25 36
25 55 0 19 -9 40 -25 55 -15 16 -36 25 -55 25 -19 0 -40 -9 -55 -25z m80 -55
c0 -18 -6 -26 -23 -28 -24 -4 -38 18 -28 44 3 9 15 14 28 12 17 -2 23 -10 23
-28z"/>
<path d="M1995 2258 c-47 -25 -61 -87 -27 -127 28 -35 73 -37 110 -6 44 37 44
83 1 119 -33 28 -53 31 -84 14z m59 -61 c16 -25 -16 -56 -38 -37 -19 15 -20
32 -4 48 15 15 28 11 42 -11z"/>
<path d="M922 2245 c-58 -49 -35 -129 40 -141 101 -17 123 142 22 162 -24 4
-37 0 -62 -21z m72 -48 c16 -25 -16 -56 -38 -37 -19 15 -20 32 -4 48 15 15 28
11 42 -11z"/>
<path d="M1974 1616 c-56 -48 -28 -130 48 -143 30 -4 41 -1 62 20 78 78 -27
195 -110 123z m76 -41 c17 -20 5 -45 -20 -45 -11 0 -23 7 -26 15 -6 15 11 45
26 45 4 0 13 -7 20 -15z"/>
<path d="M915 1615 c-48 -47 -25 -128 39 -141 42 -7 71 7 91 47 43 82 -65 160
-130 94z m75 -40 c17 -20 5 -45 -20 -45 -11 0 -23 7 -26 15 -6 15 11 45 26 45
4 0 13 -7 20 -15z"/>
<path d="M490 475 l0 -135 75 0 75 0 0 90 0 90 -45 0 c-33 0 -45 -4 -45 -15 0
-9 9 -15 25 -15 24 0 25 -3 25 -55 l0 -55 -35 0 -35 0 0 100 0 100 55 0 c42 0
55 3 55 15 0 12 -15 15 -75 15 l-75 0 0 -135z"/>
<path d="M710 475 c0 -128 1 -135 20 -135 18 0 20 7 20 60 l0 60 35 0 35 0 0
-60 c0 -53 2 -60 20 -60 19 0 20 7 20 135 l0 135 -75 0 -75 0 0 -135z m110 65
c0 -39 -1 -40 -35 -40 -34 0 -35 1 -35 40 0 39 1 40 35 40 34 0 35 -1 35 -40z"/>
<path d="M940 475 c0 -112 2 -135 15 -135 12 0 15 22 17 118 l3 117 38 3 37 3
0 -120 c0 -114 1 -121 20 -121 19 0 20 7 20 120 l0 120 35 0 35 0 0 -120 c0
-113 1 -120 20 -120 19 0 20 7 20 135 l0 135 -130 0 -130 0 0 -135z"/>
<path d="M1280 475 c0 -113 2 -135 15 -135 13 0 15 20 15 121 l0 120 38 -3 37
-3 3 -117 c2 -110 4 -118 22 -118 19 0 20 7 20 121 l0 120 33 -3 32 -3 3 -117
c2 -110 4 -118 22 -118 19 0 20 7 20 135 l0 135 -130 0 -130 0 0 -135z"/>
<path d="M1610 475 c0 -128 1 -135 20 -135 18 0 20 7 20 60 l0 60 35 0 35 0 0
-60 c0 -53 2 -60 20 -60 19 0 20 7 20 135 l0 135 -75 0 -75 0 0 -135z m110 65
c0 -39 -1 -40 -35 -40 -34 0 -35 1 -35 40 0 39 1 40 35 40 34 0 35 -1 35 -40z"/>
<path d="M1930 475 l0 -135 50 0 c43 0 55 4 75 28 21 24 24 37 25 105 0 64 -4
84 -21 108 -18 26 -26 29 -75 29 l-54 0 0 -135z m105 82 c3 -12 5 -56 3 -97
l-3 -75 -32 -3 -33 -3 0 100 0 101 30 0 c22 0 31 -5 35 -23z"/>
<path d="M2160 475 l0 -135 75 0 c68 0 75 2 75 20 0 18 -7 20 -61 20 l-60 0 3
53 3 52 58 3 c41 2 57 7 57 17 0 10 -16 15 -57 17 -54 3 -58 5 -58 28 0 23 4
25 58 28 42 2 57 7 57 17 0 12 -16 15 -75 15 l-75 0 0 -135z"/>
<path d="M2370 573 c4 -21 15 -82 25 -135 l17 -98 38 0 c43 0 37 -13 65 145 9
50 19 98 21 108 4 13 -1 17 -19 17 -29 0 -30 -4 -48 -137 -6 -51 -15 -90 -19
-88 -4 3 -13 42 -19 87 -19 135 -20 138 -46 138 -21 0 -22 -3 -15 -37z"/>
</g>
</svg>
